<mxfile host="app.diagrams.net" modified="2021-10-18T11:44:06.246Z" agent="5.0 (Windows NT 10.0; Win64; x64) AppleWebKit/537.36 (KHTML, like Gecko) Chrome/94.0.4606.81 Safari/537.36" etag="52S-oxmpBpKIcKGZfisO" version="15.5.2" type="github">
  <diagram id="C5RBs43oDa-KdzZeNtuy" name="Page-1">
    <mxGraphModel dx="1422" dy="825" grid="0" gridSize="10" guides="1" tooltips="1" connect="1" arrows="1" fold="1" page="0" pageScale="1" pageWidth="827" pageHeight="1169" math="0" shadow="0">
      <root>
        <mxCell id="WIyWlLk6GJQsqaUBKTNV-0" />
        <mxCell id="WIyWlLk6GJQsqaUBKTNV-1" parent="WIyWlLk6GJQsqaUBKTNV-0" />
        <mxCell id="MHP6gsk1ETNUwMbNDgr5-0" value="&lt;&lt;abstract&gt;&gt;&#xa;PageBase" style="swimlane;startSize=32;fontSize=12;" vertex="1" parent="WIyWlLk6GJQsqaUBKTNV-1">
          <mxGeometry x="198" y="60" width="233" height="99" as="geometry">
            <mxRectangle x="230" y="87" width="84" height="23" as="alternateBounds" />
          </mxGeometry>
        </mxCell>
        <mxCell id="MHP6gsk1ETNUwMbNDgr5-15" value="+ navigate(): void&#xa;+ clickOnButton(btnName): void&#xa;+ validateDialog(datacyDialog,titel): void&#xa;&#xa;" style="text;strokeColor=none;fillColor=none;align=left;verticalAlign=top;spacingLeft=4;spacingRight=4;overflow=hidden;rotatable=0;points=[[0,0.5],[1,0.5]];portConstraint=eastwest;" vertex="1" parent="MHP6gsk1ETNUwMbNDgr5-0">
          <mxGeometry x="-2" y="31" width="231" height="66" as="geometry" />
        </mxCell>
        <mxCell id="MHP6gsk1ETNUwMbNDgr5-1" value="VorgangPage" style="swimlane;" vertex="1" parent="WIyWlLk6GJQsqaUBKTNV-1">
          <mxGeometry x="73" y="270" width="202" height="93" as="geometry" />
        </mxCell>
        <mxCell id="MHP6gsk1ETNUwMbNDgr5-16" value="+ navigate()" style="text;strokeColor=none;fillColor=none;align=left;verticalAlign=top;spacingLeft=4;spacingRight=4;overflow=hidden;rotatable=0;points=[[0,0.5],[1,0.5]];portConstraint=eastwest;" vertex="1" parent="MHP6gsk1ETNUwMbNDgr5-1">
          <mxGeometry y="30.5" width="202" height="38" as="geometry" />
        </mxCell>
        <mxCell id="MHP6gsk1ETNUwMbNDgr5-2" value="AktivitaetPage" style="swimlane;startSize=23;" vertex="1" parent="WIyWlLk6GJQsqaUBKTNV-1">
          <mxGeometry x="357" y="273" width="202" height="93" as="geometry" />
        </mxCell>
        <mxCell id="MHP6gsk1ETNUwMbNDgr5-17" value="+ navigate()" style="text;strokeColor=none;fillColor=none;align=left;verticalAlign=top;spacingLeft=4;spacingRight=4;overflow=hidden;rotatable=0;points=[[0,0.5],[1,0.5]];portConstraint=eastwest;" vertex="1" parent="MHP6gsk1ETNUwMbNDgr5-2">
          <mxGeometry y="32" width="202" height="38" as="geometry" />
        </mxCell>
        <mxCell id="MHP6gsk1ETNUwMbNDgr5-3" value="StringHelper" style="swimlane;" vertex="1" parent="WIyWlLk6GJQsqaUBKTNV-1">
          <mxGeometry x="212" y="471" width="202" height="93" as="geometry" />
        </mxCell>
        <mxCell id="MHP6gsk1ETNUwMbNDgr5-19" value="+ getDateTimeNow(format): string&#xa;+ ..." style="text;strokeColor=none;fillColor=none;align=left;verticalAlign=top;spacingLeft=4;spacingRight=4;overflow=hidden;rotatable=0;points=[[0,0.5],[1,0.5]];portConstraint=eastwest;" vertex="1" parent="MHP6gsk1ETNUwMbNDgr5-3">
          <mxGeometry y="27.5" width="202" height="38" as="geometry" />
        </mxCell>
        <mxCell id="MHP6gsk1ETNUwMbNDgr5-4" value="Extends" style="endArrow=block;endSize=16;endFill=0;html=1;rounded=0;entryX=0.25;entryY=1;entryDx=0;entryDy=0;exitX=0.335;exitY=0;exitDx=0;exitDy=0;exitPerimeter=0;" edge="1" parent="WIyWlLk6GJQsqaUBKTNV-1" source="MHP6gsk1ETNUwMbNDgr5-1" target="MHP6gsk1ETNUwMbNDgr5-0">
          <mxGeometry width="160" relative="1" as="geometry">
            <mxPoint x="332" y="422" as="sourcePoint" />
            <mxPoint x="492" y="422" as="targetPoint" />
          </mxGeometry>
        </mxCell>
        <mxCell id="MHP6gsk1ETNUwMbNDgr5-5" value="Extends" style="endArrow=block;endSize=16;endFill=0;html=1;rounded=0;exitX=0.5;exitY=0;exitDx=0;exitDy=0;entryX=0.732;entryY=1;entryDx=0;entryDy=0;entryPerimeter=0;" edge="1" parent="WIyWlLk6GJQsqaUBKTNV-1" source="MHP6gsk1ETNUwMbNDgr5-2" target="MHP6gsk1ETNUwMbNDgr5-15">
          <mxGeometry width="160" relative="1" as="geometry">
            <mxPoint x="448" y="247" as="sourcePoint" />
            <mxPoint x="370" y="180" as="targetPoint" />
          </mxGeometry>
        </mxCell>
        <mxCell id="MHP6gsk1ETNUwMbNDgr5-10" value="Use" style="endArrow=open;endSize=12;dashed=1;html=1;rounded=0;" edge="1" parent="WIyWlLk6GJQsqaUBKTNV-1" target="MHP6gsk1ETNUwMbNDgr5-3">
          <mxGeometry width="160" relative="1" as="geometry">
            <mxPoint x="425" y="366" as="sourcePoint" />
            <mxPoint x="492" y="422" as="targetPoint" />
          </mxGeometry>
        </mxCell>
        <mxCell id="MHP6gsk1ETNUwMbNDgr5-11" value="Use" style="endArrow=open;endSize=12;dashed=1;html=1;rounded=0;" edge="1" parent="WIyWlLk6GJQsqaUBKTNV-1" target="MHP6gsk1ETNUwMbNDgr5-3">
          <mxGeometry width="160" relative="1" as="geometry">
            <mxPoint x="214" y="362" as="sourcePoint" />
            <mxPoint x="624" y="422" as="targetPoint" />
          </mxGeometry>
        </mxCell>
      </root>
    </mxGraphModel>
  </diagram>
</mxfile>
